<svg xmlns="http://www.w3.org/2000/svg" enable-background="new 0 0 192 192" height="192" viewBox="0 0 192 192" width="192"><rect fill="none" height="192" width="192"/><g><g><path d="M8,46v16l18.35,17.76L48,92l4-26.93L48,40l-11.2-8.4C24.93,22.7,8,31.17,8,46" fill="#C5221F"/><path d="M144,40l-4,25.4l4,26.6l19.65-9.73L184,62V46c0-14.83-16.93-23.3-28.8-14.4L144,40z" fill="#FBBC04"/><path d="M20,160h28V92L8,62v86C8,154.63,13.37,160,20,160" fill="#4285F4"/><path d="M144,160h28c6.63,0,12-5.37,12-12V62l-40,30V160z" fill="#34A853"/><polygon fill="#EA4335" points="96,76 48,40 48,92 96,128 144,92 144,40"/></g></g></svg>